<svg version="1.1" id="Layer_1" xmlns="http://www.w3.org/2000/svg" xmlns:xlink="http://www.w3.org/1999/xlink" x="0px" y="0px"
	 width="100%" viewBox="0 0 215 224" enable-background="new 0 0 215 224" xml:space="preserve">
<path fill="#FEFDFE" opacity="1.000000" stroke="none" 
	d="
M116.000000,225.000000 
	C77.333336,225.000000 39.166672,225.000000 1.000005,225.000000 
	C1.000003,150.333344 1.000003,75.666679 1.000002,1.000015 
	C72.666656,1.000010 144.333313,1.000010 215.999969,1.000005 
	C215.999985,75.666649 215.999985,150.333298 216.000000,224.999969 
	C182.833328,225.000000 149.666672,225.000000 116.000000,225.000000 
M150.194595,210.718994 
	C152.969650,209.213242 155.820251,207.830780 158.508636,206.183563 
	C213.348709,172.582306 224.633972,92.439278 181.266220,44.731831 
	C145.941269,5.872009 90.472427,1.170102 51.757580,33.753819 
	C9.844656,69.029129 1.647921,132.741226 33.229034,177.773651 
	C60.487694,216.642578 108.572647,230.389313 150.194595,210.718994 
z"/>
<path fill="#8D3847" opacity="1.000000" stroke="none" 
	d="
M149.847473,210.866409 
	C108.572647,230.389313 60.487694,216.642578 33.229034,177.773651 
	C1.647921,132.741226 9.844656,69.029129 51.757580,33.753819 
	C90.472427,1.170102 145.941269,5.872009 181.266220,44.731831 
	C224.633972,92.439278 213.348709,172.582306 158.508636,206.183563 
	C155.820251,207.830780 152.969650,209.213242 149.847473,210.866409 
M52.160324,144.788162 
	C54.951988,145.329712 57.743652,145.871262 61.160736,146.534149 
	C61.160736,131.499374 61.160736,117.682938 61.160736,103.866493 
	C67.251846,116.785049 72.677742,129.777420 77.833275,142.876205 
	C78.913269,145.620163 80.540955,146.730377 83.033615,145.958420 
	C84.754074,145.425583 86.970039,144.264542 87.602066,142.797333 
	C92.731316,130.890274 97.529892,118.840950 102.458351,106.846939 
	C102.911316,105.744583 103.567032,104.725555 104.128601,103.667831 
	C104.406540,103.748909 104.684486,103.829994 104.962433,103.911079 
	C104.962433,117.810242 104.962433,131.709412 104.962433,145.711609 
	C107.911316,145.711609 110.452576,145.711609 112.896194,145.711609 
	C112.896194,125.625389 112.896194,105.900230 112.896194,85.929482 
	C111.519806,85.929482 110.505951,86.086975 109.558105,85.903503 
	C104.063324,84.839890 101.425468,87.116684 99.512589,92.428772 
	C95.291481,104.150818 90.247810,115.577385 85.502129,127.109032 
	C84.781296,128.860596 83.859070,130.529282 82.629669,133.060577 
	C76.812340,118.861092 71.375587,105.651649 65.990387,92.421219 
	C63.113079,85.352226 59.474590,83.921570 51.383381,87.581009 
	C51.568272,90.380592 51.753166,93.180176 52.108746,96.650848 
	C52.051426,97.105301 51.994110,97.559753 51.282108,98.109093 
	C51.500000,99.067986 51.717892,100.026871 52.106590,101.657677 
	C52.049473,102.112724 51.992352,102.567780 51.365772,103.624870 
	C51.259251,116.506836 51.141273,129.388748 51.084442,142.270935 
	C51.081947,142.837296 51.638626,143.406113 52.160324,144.788162 
M173.709167,87.112953 
	C167.998154,84.245224 164.476608,85.403740 162.621979,90.796875 
	C157.619125,105.344856 152.631363,119.898041 147.233322,135.627213 
	C146.266266,133.097076 145.657257,131.636444 145.144958,130.142624 
	C140.513290,116.637543 135.796844,103.159904 131.359467,89.591087 
	C130.402512,86.664894 129.036469,85.539215 126.068970,85.890015 
	C124.336998,86.094765 122.561020,85.927307 120.510574,85.927307 
	C120.851486,87.340179 120.970848,88.163078 121.246643,88.929695 
	C127.651825,106.733711 134.248367,124.472008 140.368240,142.373306 
	C141.865387,146.752640 144.719330,145.893723 147.754318,146.118118 
	C150.884720,146.349579 152.793152,145.703262 153.989227,142.254974 
	C160.297913,124.066811 166.910706,105.984123 173.709167,87.112953 
z"/>
<path fill="#FDF8F9" opacity="1.000000" stroke="none" 
	d="
M51.936142,87.024612 
	C59.474590,83.921570 63.113079,85.352226 65.990387,92.421219 
	C71.375587,105.651649 76.812340,118.861092 82.629669,133.060577 
	C83.859070,130.529282 84.781296,128.860596 85.502129,127.109032 
	C90.247810,115.577385 95.291481,104.150818 99.512589,92.428772 
	C101.425468,87.116684 104.063324,84.839890 109.558105,85.903503 
	C110.505951,86.086975 111.519806,85.929482 112.896194,85.929482 
	C112.896194,105.900230 112.896194,125.625389 112.896194,145.711609 
	C110.452576,145.711609 107.911316,145.711609 104.962433,145.711609 
	C104.962433,131.709412 104.962433,117.810242 104.962433,103.911079 
	C104.684486,103.829994 104.406540,103.748909 104.128601,103.667831 
	C103.567032,104.725555 102.911316,105.744583 102.458351,106.846939 
	C97.529892,118.840950 92.731316,130.890274 87.602066,142.797333 
	C86.970039,144.264542 84.754074,145.425583 83.033615,145.958420 
	C80.540955,146.730377 78.913269,145.620163 77.833275,142.876205 
	C72.677742,129.777420 67.251846,116.785049 61.160736,103.866493 
	C61.160736,117.682938 61.160736,131.499374 61.160736,146.534149 
	C57.743652,145.871262 54.951988,145.329712 52.134766,143.921631 
	C52.051212,129.711014 51.993225,116.366920 51.935234,103.022827 
	C51.992352,102.567780 52.049473,102.112724 52.107243,100.955292 
	C52.050861,99.506676 51.993828,98.760445 51.936790,98.014206 
	C51.994110,97.559753 52.051426,97.105301 52.110287,95.874313 
	C52.053268,92.406723 51.994705,89.715668 51.936142,87.024612 
z"/>
<path fill="#FCF7F8" opacity="1.000000" stroke="none" 
	d="
M173.563568,87.488899 
	C166.910706,105.984123 160.297913,124.066811 153.989227,142.254974 
	C152.793152,145.703262 150.884720,146.349579 147.754318,146.118118 
	C144.719330,145.893723 141.865387,146.752640 140.368240,142.373306 
	C134.248367,124.472008 127.651825,106.733711 121.246643,88.929695 
	C120.970848,88.163078 120.851486,87.340179 120.510574,85.927307 
	C122.561020,85.927307 124.336998,86.094765 126.068970,85.890015 
	C129.036469,85.539215 130.402512,86.664894 131.359467,89.591087 
	C135.796844,103.159904 140.513290,116.637543 145.144958,130.142624 
	C145.657257,131.636444 146.266266,133.097076 147.233322,135.627213 
	C152.631363,119.898041 157.619125,105.344856 162.621979,90.796875 
	C164.476608,85.403740 167.998154,84.245224 173.563568,87.488899 
z"/>
<path fill="#7F3D49" opacity="1.000000" stroke="none" 
	d="
M51.650505,103.323853 
	C51.993225,116.366920 52.051212,129.711014 52.022018,143.514450 
	C51.638626,143.406113 51.081947,142.837296 51.084442,142.270935 
	C51.141273,129.388748 51.259251,116.506836 51.650505,103.323853 
z"/>
<path fill="#7F3D49" opacity="1.000000" stroke="none" 
	d="
M51.659760,87.302811 
	C51.994705,89.715668 52.053268,92.406723 52.024944,95.538773 
	C51.753166,93.180176 51.568272,90.380592 51.659760,87.302811 
z"/>
<path fill="#7F3D49" opacity="1.000000" stroke="none" 
	d="
M51.609451,98.061646 
	C51.993828,98.760445 52.050861,99.506676 52.021839,100.619339 
	C51.717892,100.026871 51.500000,99.067986 51.609451,98.061646 
z"/>
</svg>